<svg width="1215" height="336" viewBox="0 0 1215 336" fill="none" xmlns="http://www.w3.org/2000/svg">
<path d="M398.587 248.561C338.571 330.046 63 422 63 422H1328.33C1328.33 422 1374.84 298.635 1328.33 179.823C1281.82 61.011 1242.81 42.3471 1242.81 42.3471C1242.81 42.3471 1141.28 -14.1001 1027.25 71.0259C913.221 156.152 922.223 248.561 815.195 248.561C708.167 248.561 686.662 119.734 599.139 106.078C511.616 92.4212 458.603 167.077 398.587 248.561Z" fill="#8CD08E"/>
<path d="M269.5 327.652C209.5 417.152 1 482.298 1 482.298H1266C1266 482.298 1379 396.646 1332.5 266.146C1286 135.646 1311.5 77.652 1266 49.652C1220.5 21.652 1090.5 -43.8481 976.5 49.6519C862.501 143.152 839.5 266.146 732.5 266.146C625.5 266.146 586 153.152 498.5 138.152C411 123.152 329.5 238.152 269.5 327.652Z" stroke="#E1E434"/>
<path d="M1173.5 355.5C1088.34 323.437 999.695 263.632 932.5 191.776M849 73C868.83 114.364 897.806 154.676 932.5 191.776M849 73C906.564 106.567 924.297 132.853 932.5 191.776M849 73C892.651 118.98 910.339 145.074 932.5 191.776" stroke="#68A9CE"/>
<path d="M971 230.672C932.201 202.291 883.862 188.585 835 205.172M971 230.672C921.042 232.808 882.703 223.828 835 205.172M971 230.672C919.349 215.15 889.549 209.656 835 205.172" stroke="#68A9CE"/>
<path d="M1037 283.144C998.201 254.762 945.362 266.557 896.5 283.144M1037 283.144C987.042 285.28 944.203 301.8 896.5 283.144M1037 283.144C985.349 267.622 951.049 287.628 896.5 283.144" stroke="#68A9CE"/>
<path d="M1000.87 254.5C983.076 213.026 968.667 171.298 981.867 128M1000.87 254.5C1016.67 216.422 1004.39 175.049 981.867 128M1000.87 254.5C1004.58 206.378 983 178.5 981.867 128" stroke="#68A9CE"/>
<path d="M1080.87 310.5C1063.08 269.026 1030.3 235.298 1043.5 192M1080.87 310.5C1096.67 272.422 1066.02 239.049 1043.5 192M1080.87 310.5C1079.5 272.5 1052 248.5 1043.5 192" stroke="#68A9CE"/>
<circle cx="1081.5" cy="314.848" r="9.5" fill="#E1E434" style="mix-blend-mode:lighten"/>
<circle cx="1039.5" cy="282.848" r="9.5" fill="#E1E434" style="mix-blend-mode:lighten"/>
<circle cx="986.5" cy="244.848" r="9.5" fill="#E1E434" style="mix-blend-mode:lighten"/>
<circle cx="938.5" cy="197.5" r="9.5" fill="#E1E434" style="mix-blend-mode:lighten"/>
<path d="M1091 300.848C1105.5 268.848 1064 210.848 1054 198.348" stroke="#E1E48E"/>
<path d="M1024 290.848C970.66 302.207 950.591 303.765 898.5 293.848" stroke="#E1E48E"/>
<path d="M1009 252.848C1021.1 203.478 1017.04 178.6 996 136.848" stroke="#E1E48E"/>
<path d="M968.5 235.848C922.686 235.979 896.87 232.139 856 221.848" stroke="#E1E48E"/>
</svg>
