<svg width="1215" height="336" viewBox="0 0 1215 336" fill="none" xmlns="http://www.w3.org/2000/svg">
<path d="M398.587 248.561C338.571 330.046 63 422 63 422H1328.33C1328.33 422 1374.84 298.635 1328.33 179.823C1281.82 61.011 1242.81 42.3471 1242.81 42.3471C1242.81 42.3471 1141.28 -14.1001 1027.25 71.0259C913.221 156.152 922.223 248.561 815.195 248.561C708.167 248.561 686.662 119.734 599.139 106.078C511.616 92.4212 458.603 167.077 398.587 248.561Z" fill="#8CD08E"/>
<path d="M269.5 327.652C209.5 417.152 1 482.298 1 482.298H1266C1266 482.298 1379 396.646 1332.5 266.146C1286 135.646 1311.5 77.652 1266 49.652C1220.5 21.652 1090.5 -43.8481 976.5 49.6519C862.501 143.152 839.5 266.146 732.5 266.146C625.5 266.146 586 153.152 498.5 138.152C411 123.152 329.5 238.152 269.5 327.652Z" stroke="#E1E434"/>
<path d="M1146.5 354.5C1061.34 322.437 972.695 262.632 905.5 190.776M822 72C841.83 113.364 870.806 153.676 905.5 190.776M822 72C879.564 105.567 897.297 131.853 905.5 190.776M822 72C865.651 117.98 883.339 144.074 905.5 190.776" stroke="#68A9CE"/>
<path d="M944 229.672C905.201 201.291 856.862 187.585 808 204.172M944 229.672C894.042 231.808 855.703 222.828 808 204.172M944 229.672C892.349 214.15 862.549 208.656 808 204.172" stroke="#68A9CE"/>
<path d="M1010 282.144C971.201 253.762 918.362 265.557 869.5 282.144M1010 282.144C960.042 284.28 917.203 300.8 869.5 282.144M1010 282.144C958.349 266.622 924.049 286.628 869.5 282.144" stroke="#68A9CE"/>
<path d="M973.867 253.5C956.076 212.026 941.667 170.298 954.867 127M973.867 253.5C989.673 215.422 977.386 174.049 954.867 127M973.867 253.5C977.584 205.378 956 177.5 954.867 127" stroke="#68A9CE"/>
<path d="M1053.87 309.5C1036.08 268.026 1003.3 234.298 1016.5 191M1053.87 309.5C1069.67 271.422 1039.02 238.049 1016.5 191M1053.87 309.5C1052.5 271.5 1025 247.5 1016.5 191" stroke="#68A9CE"/>
<circle cx="1054.5" cy="313.848" r="9.5" fill="#E1E434" style="mix-blend-mode:lighten"/>
<circle cx="1012.5" cy="281.848" r="9.5" fill="#E1E434" style="mix-blend-mode:lighten"/>
<circle cx="959.5" cy="243.848" r="9.5" fill="#E1E434" style="mix-blend-mode:lighten"/>
<circle cx="909.5" cy="196.848" r="9.5" fill="#E1E434" style="mix-blend-mode:lighten"/>
<path d="M1064 299.848C1078.5 267.848 1037 209.848 1027 197.348" stroke="#E1E48E"/>
<path d="M997 289.848C943.66 301.207 923.591 302.765 871.5 292.848" stroke="#E1E48E"/>
<path d="M982 251.848C994.096 202.478 990.038 177.6 969 135.848" stroke="#E1E48E"/>
<path d="M941.5 234.848C895.686 234.979 869.87 231.139 829 220.848" stroke="#E1E48E"/>
</svg>
