<svg width="1006" height="392" viewBox="0 0 1006 392" fill="none" xmlns="http://www.w3.org/2000/svg">
<path d="M36.494 233.192C-88.0022 249.393 -158 379 -158 379V-143.693L668.475 -143.693C668.475 -143.693 879.468 -153.925 861.969 -56.293C844.469 41.3388 675.974 13.7457 551.978 58.9378C427.982 104.13 415.482 277.105 290.986 283.074C166.49 289.042 160.99 216.991 36.494 233.192Z" fill="#8CD08E"/>
<path d="M178.5 220.36C54 239.36 -16 391.36 -16 391.36V-221.64L810.5 -221.64C810.5 -221.64 1021.5 -233.64 1004 -119.14C986.5 -4.63959 818 -37 694 16C570 69 557.5 271.86 433 278.86C308.5 285.86 303 201.36 178.5 220.36Z" stroke="#E1E434"/>
<path d="M51 -19C136.164 13.0626 224.805 72.8683 292 144.724M375.5 263.5C355.67 222.136 326.694 181.824 292 144.724M375.5 263.5C317.936 229.933 300.203 203.647 292 144.724M375.5 263.5C331.849 217.52 314.161 191.426 292 144.724" stroke="#68A9CE"/>
<path d="M253.5 105.828C292.299 134.209 340.638 147.915 389.5 131.328M253.5 105.828C303.458 103.692 341.797 112.672 389.5 131.328M253.5 105.828C305.151 121.35 334.951 126.844 389.5 131.328" stroke="#68A9CE"/>
<path d="M187.5 53.3562C226.299 81.7376 279.138 69.9429 328 53.356M187.5 53.3562C237.458 51.2204 280.297 34.7 328 53.356M187.5 53.3562C239.151 68.8784 273.451 48.8719 328 53.356" stroke="#68A9CE"/>
<path d="M223.633 82C241.424 123.474 255.833 165.202 242.633 208.5M223.633 82C207.827 120.078 220.114 161.451 242.633 208.5M223.633 82C219.916 130.122 241.5 158 242.633 208.5" stroke="#68A9CE"/>
<path d="M143.633 26C161.424 67.4737 194.201 101.202 181 144.5M143.633 26C127.827 64.0777 158.481 97.451 181 144.5M143.633 26C145 64 172.5 88 181 144.5" stroke="#68A9CE"/>
<circle cx="187.5" cy="53.5" r="9.5" fill="#E1E434" style="mix-blend-mode:lighten"/>
<circle cx="143.5" cy="24.5" r="9.5" fill="#E1E434" style="mix-blend-mode:lighten"/>
<circle cx="290.5" cy="147.5" r="9.5" fill="#E1E434" style="mix-blend-mode:lighten"/>
<circle cx="241.5" cy="96.5" r="9.5" fill="#E1E434" style="mix-blend-mode:lighten"/>
<path d="M130 40C128.219 54.822 127.035 75.6849 169 138" stroke="#E1E48E"/>
<path d="M203.5 42.5C251.479 32.411 278.414 32.452 326.5 40.5" stroke="#E1E48E"/>
<path d="M264.5 94.5115C313.689 94.7279 340.806 101.073 388.5 121.511" stroke="#E1E48E"/>
</svg>
